<svg xmlns="http://www.w3.org/2000/svg" width="21.758" height="21.758" viewBox="0 0 21.758 21.758">
  <g id="Grupo_1773" data-name="Grupo 1773" transform="translate(-492.121 -6498.121)">
    <path id="Icon_awesome-question-circle" data-name="Icon awesome-question-circle" d="M22.32,11.441A10.879,10.879,0,1,1,11.441.563,10.878,10.878,0,0,1,22.32,11.441ZM11.733,4.16a5.682,5.682,0,0,0-5.113,2.8.527.527,0,0,0,.119.713L8.262,8.824a.526.526,0,0,0,.731-.093c.784-.994,1.321-1.57,2.514-1.57.9,0,2,.577,2,1.446,0,.657-.542.994-1.427,1.49-1.032.578-2.4,1.3-2.4,3.1v.175a.526.526,0,0,0,.526.526H12.67a.526.526,0,0,0,.526-.526v-.058c0-1.249,3.649-1.3,3.649-4.679C16.845,6.09,14.206,4.16,11.733,4.16Zm-.292,10.879a2.018,2.018,0,1,0,2.018,2.018A2.02,2.02,0,0,0,11.441,15.038Z" transform="translate(491.559 6497.559)" fill="#aa5a22"/>
  </g>
</svg>
