<svg xmlns="http://www.w3.org/2000/svg" width="20" height="19.199" viewBox="0 0 20 19.199">
  <g id="Grupo_1770" data-name="Grupo 1770" transform="translate(-644.275 -6412.566)">
    <path id="Caminho_18119" data-name="Caminho 18119" d="M176.5,440a1.2,1.2,0,0,0,2.4,0Zm0,0" transform="translate(476.575 5990.565)" fill="#aa5a22"/>
    <path id="Caminho_18120" data-name="Caminho 18120" d="M168.036,226.875a.4.4,0,0,1-.64-.1l-.443-.884-.44.884a.4.4,0,0,1-.64.1l-.686-.686.9,4.8h1.736l.9-4.8Zm0,0" transform="translate(487.323 6197.974)" fill="#aa5a22"/>
    <path id="Caminho_18122" data-name="Caminho 18122" d="M89.475,91.195a6,6,0,1,0-5.96-.014,1.983,1.983,0,0,1,.92,1.2h4.139a1.927,1.927,0,0,1,.9-1.186Zm0,0" transform="translate(567.77 6336.585)" fill="#aa5a22"/>
    <path id="Caminho_18123" data-name="Caminho 18123" d="M26.462,96.77l1.386.8a.4.4,0,1,0,.4-.693l-1.386-.8a.4.4,0,0,0-.4.693Zm0,0" transform="translate(619.299 6321.342)" fill="#aa5a22"/>
    <path id="Caminho_18124" data-name="Caminho 18124" d="M27.764,272.028l-1.386.8a.4.4,0,1,0,.4.693l1.386-.8a.4.4,0,1,0-.4-.693Zm0,0" transform="translate(619.384 6154.192)" fill="#aa5a22"/>
    <path id="Caminho_18125" data-name="Caminho 18125" d="M333,272.828l-1.386-.8a.4.4,0,1,0-.4.693l1.386.8a.4.4,0,1,0,.4-.693Zm0,0" transform="translate(329.786 6154.192)" fill="#aa5a22"/>
    <path id="Caminho_18126" data-name="Caminho 18126" d="M331.466,97.574a.4.4,0,0,0,.2-.054l1.386-.8a.4.4,0,1,0-.4-.693l-1.386.8a.4.4,0,0,0,.2.746Zm0,0" transform="translate(329.738 6321.392)" fill="#aa5a22"/>
    <path id="Caminho_18127" data-name="Caminho 18127" d="M272.7,27.895a.4.4,0,0,0,.547-.146l.8-1.386a.4.4,0,0,0-.693-.4l-.8,1.386a.4.4,0,0,0,.146.546Zm0,0" transform="translate(385.376 6388.089)" fill="#aa5a22"/>
    <path id="Caminho_18128" data-name="Caminho 18128" d="M192.9,2.4a.4.4,0,0,0,.4-.4V.4a.4.4,0,0,0-.8,0V2A.4.4,0,0,0,192.9,2.4Zm0,0" transform="translate(461.375 6412.566)" fill="#aa5a22"/>
    <path id="Caminho_18129" data-name="Caminho 18129" d="M97.377,27.748a.4.4,0,1,0,.693-.4l-.8-1.386a.4.4,0,0,0-.693.4Zm0,0" transform="translate(552.552 6388.089)" fill="#aa5a22"/>
    <path id="Caminho_18130" data-name="Caminho 18130" d="M2.9,192.4a.4.4,0,0,0-.4-.4H.9a.4.4,0,0,0,0,.8H2.5A.4.4,0,0,0,2.9,192.4Zm0,0" transform="translate(643.775 6230.166)" fill="#aa5a22"/>
    <path id="Caminho_18131" data-name="Caminho 18131" d="M354.5,192h-1.6a.4.4,0,0,0,0,.8h1.6a.4.4,0,0,0,0-.8Zm0,0" transform="translate(309.375 6230.166)" fill="#aa5a22"/>
  </g>
</svg>
