<svg xmlns="http://www.w3.org/2000/svg" width="11.813" height="31.502" viewBox="0 0 11.813 31.502">
  <g id="Icon_ionic-md-man" data-name="Icon ionic-md-man" transform="translate(-12.094 -2.25)">
    <path id="Caminho_48778" data-name="Caminho 48778" d="M18,7.5a2.623,2.623,0,1,0-2.623-2.623A2.614,2.614,0,0,0,18,7.5Z" fill="#aa5a22"/>
    <path id="Caminho_48779" data-name="Caminho 48779" d="M20.63,8.086H15.37a3.366,3.366,0,0,0-3.277,3.4v7.988a1.092,1.092,0,1,0,2.18,0V12.094H14.7V32.175a1.513,1.513,0,1,0,3.023,0V20.6h.563v11.58a1.513,1.513,0,1,0,3.023-.007V12.094h.352v7.383a1.126,1.126,0,1,0,2.25,0V11.489A3.375,3.375,0,0,0,20.63,8.086Z" fill="#aa5a22"/>
  </g>
</svg>
