<svg xmlns="http://www.w3.org/2000/svg" width="25.433" height="16.528" viewBox="0 0 25.433 16.528">
  <g id="Grupo_1772" data-name="Grupo 1772" transform="translate(-540.284 -6500.736)">
    <path id="Caminho_48780" data-name="Caminho 48780" d="M21.367,20.465c-.634-.227-1.671-.238-2.13-.413a3.009,3.009,0,0,1-.986-.459,6.09,6.09,0,0,1-.164-1.614,2.608,2.608,0,0,0,.561-.793,8.813,8.813,0,0,0,.272-1.558s.374.159.521-.589c.125-.646.363-.986.3-1.461s-.329-.363-.329-.363a4.241,4.241,0,0,0,.329-2.118,3.39,3.39,0,0,0-3.659-3.348A3.4,3.4,0,0,0,12.417,11.1a4.3,4.3,0,0,0,.323,2.118s-.266-.113-.329.363.17.816.3,1.461c.147.753.521.589.521.589a8.9,8.9,0,0,0,.272,1.558,2.608,2.608,0,0,0,.561.793,6.09,6.09,0,0,1-.164,1.614,2.9,2.9,0,0,1-.986.453c-.453.176-1.49.2-2.13.425a4,4,0,0,0-2.594,3.806H23.955A3.99,3.99,0,0,0,21.367,20.465Z" transform="translate(536.907 6492.987)" fill="#aa5a22"/>
    <path id="Caminho_48781" data-name="Caminho 48781" d="M8.361,18.379a3.845,3.845,0,0,0,1.892-.527c-.878-1.331-.4-2.883-.583-4.333a2.39,2.39,0,0,0-2.645-2.311H7a2.4,2.4,0,0,0-2.623,2.311C4.2,14.963,4.7,16.691,3.8,17.852a3.559,3.559,0,0,0,1.9.47h0a2.869,2.869,0,0,1-.057.952,1.43,1.43,0,0,1-.68.312,13.143,13.143,0,0,0-1.467.408A2.385,2.385,0,0,0,2.215,22.1H6.763a4.069,4.069,0,0,1,1.813-1.688,3.8,3.8,0,0,1,1.4-.295s.215-.34-.493-.47a4.829,4.829,0,0,1-1.088-.38C8.287,19.143,8.361,18.379,8.361,18.379Z" transform="translate(538.069 6492.315)" fill="#aa5a22"/>
    <path id="Caminho_48782" data-name="Caminho 48782" d="M25.7,18.379a3.845,3.845,0,0,1-1.892-.527c.878-1.331.4-2.883.583-4.333a2.39,2.39,0,0,1,2.645-2.311h.023a2.4,2.4,0,0,1,2.623,2.311c.181,1.444-.323,3.172.578,4.333a3.559,3.559,0,0,1-1.9.47h0a2.869,2.869,0,0,0,.057.952,1.43,1.43,0,0,0,.68.312,13.143,13.143,0,0,1,1.467.408,2.385,2.385,0,0,1,1.28,2.107H27.3a4.069,4.069,0,0,0-1.813-1.688,3.8,3.8,0,0,0-1.4-.295s-.215-.34.493-.47a4.829,4.829,0,0,0,1.088-.38C25.773,19.143,25.7,18.379,25.7,18.379Z" transform="translate(533.871 6492.315)" fill="#aa5a22"/>
  </g>
</svg>
