<svg xmlns="http://www.w3.org/2000/svg" width="13.501" height="31.525" viewBox="0 0 13.501 31.525">
  <g id="Icon_ionic-md-woman" data-name="Icon ionic-md-woman" transform="translate(-11.254 -2.243)">
    <path id="Caminho_48776" data-name="Caminho 48776" d="M13.387,10.448,11.32,17.782c-.443,1.6,1.455,2.229,1.92.724l1.849-6.764h.52L12.431,23.625H15.4v8.93a1.128,1.128,0,1,0,2.25,0v-8.93h.7v8.93a1.1,1.1,0,1,0,2.18,0v-8.93h3.052L20.334,11.742h.591l1.849,6.764c.457,1.54,2.341.879,1.92-.717l-2.067-7.341a3.493,3.493,0,0,0-2.953-2.363H16.348A3.357,3.357,0,0,0,13.387,10.448Z" fill="#aa5a22"/>
    <path id="Caminho_48777" data-name="Caminho 48777" d="M20.573,4.866A2.574,2.574,0,1,0,18,7.488,2.6,2.6,0,0,0,20.573,4.866Z" fill="#aa5a22"/>
  </g>
</svg>
