<svg xmlns="http://www.w3.org/2000/svg" width="17.335" height="14.613" viewBox="0 0 17.335 14.613">
  <g id="Grupo_1769" data-name="Grupo 1769" transform="translate(-595.608 -6414.859)">
    <path id="Caminho_4537" data-name="Caminho 4537" d="M13.056,5.288a.727.727,0,0,1-.722-.731v-1.1H9.445v1.1A.722.722,0,1,1,8,4.557v-1.1A1.454,1.454,0,0,1,9.445,2h2.889a1.454,1.454,0,0,1,1.445,1.461v1.1A.727.727,0,0,1,13.056,5.288Z" transform="translate(593.386 6412.859)" fill="#aa5a22"/>
    <path id="Caminho_4538" data-name="Caminho 4538" d="M9.18,14.367a1.472,1.472,0,0,1-.513.088,1.567,1.567,0,0,1-.556-.1L0,11.62v5.575A2,2,0,0,0,1.986,19.2H15.349a2,2,0,0,0,1.986-2.009V11.62Z" transform="translate(595.608 6410.268)" fill="#aa5a22"/>
    <path id="Caminho_4539" data-name="Caminho 4539" d="M17.335,7.009V8.683L8.841,11.547a.529.529,0,0,1-.347,0L0,8.683V7.009A2,2,0,0,1,1.986,5H15.349A2,2,0,0,1,17.335,7.009Z" transform="translate(595.608 6412.051)" fill="#aa5a22"/>
  </g>
</svg>
