<svg xmlns="http://www.w3.org/2000/svg" width="48.877" height="71.246" viewBox="0 0 48.877 71.246">
  <path id="Caminho_18447" data-name="Caminho 18447" d="M214.011,213.668c-.164-.061-.183-1.908-.366-4.9s-1.664-7.968-1.842-10.311a16.872,16.872,0,0,1,.492-4.8c.1-.717.989-8.84.989-8.84s-.891-9.121-.989-12.186c-.1-3.178.183-7.63.141-8.685-.042-.937-.876-3.14-.178-5.156.492-1.406,9.2-16.011,23.069-15.814,8.123.113,10.185,1.626,10.185,1.626s5.9,3.75,8.98,7.865a17.05,17.05,0,0,1,2.7,5.039c.614,2.081.417,4.34.614,9.088.225,5.521.98,16.559.98,16.559s-.469-11.277-.736-16.559c-.206-3.956.075-6.787-.614-9.2a19.59,19.59,0,0,0-2.681-5.231c-3.281-4.293-8.905-7.86-9-7.921-.248-.136.469-.469.736-.741.352-.347.717-.68,1.1-.994l.061.038c.173,0,5.128,3.14,9.2,9.843,3.9,6.468,1.729,13.639,1.837,13.7,0,0,.431.061.614,1.223s1.355,15,1.355,15-.539.291-.98.492a5.4,5.4,0,0,1-.614.244s.375-.061.614-.122a3.415,3.415,0,0,0,.37-.122c-.141,2.189-1.111,15.5-1.111,17.079,0,1.72,1.111,6.206,1.111,7.359s-.052,5.2-.5,5.517a3.747,3.747,0,0,0-.469.37c-.033.056.2-1.842.244-2.812a18.19,18.19,0,0,0,0-3.571c-.159-1.631-.8-4.218-.858-6.384a104.227,104.227,0,0,1,.37-10.818,100.186,100.186,0,0,0-.558,10.85,55.2,55.2,0,0,0,.792,6.4,17.849,17.849,0,0,1,.122,3.572,16.876,16.876,0,0,1-.366,2.812,3.369,3.369,0,0,1-1.106,0c-.239-.052-.469-.267-.375-.736-.577-.337-.366-1.645-.328-3.281.047-1.95-.037-4.467-.037-4.467a14.949,14.949,0,0,0-.089,3.187c0,1.223-.511,1.514-.769,1.359a12.013,12.013,0,0,1,0-1.837,25.9,25.9,0,0,1-.15-3.356,15.156,15.156,0,0,0,.516-4.026c-.206-2.451-.764-7.471-1.111-10.072-.614-4.818.253-10.935.253-9.707,0,1.017-.848-6.82-1.148-9.768,0-.15-.445-5.624-.7-7.434a17.478,17.478,0,0,0-.984-4.176,20.007,20.007,0,0,1,.741,4.176s.656,6.412.38,6.506l-.4.131a4.247,4.247,0,0,0,.159-.755c0-.783-.417-.975-.614-1.617a2.478,2.478,0,0,1-.075-1.017,2.157,2.157,0,0,0,0,1.008c.155.651.469.816.469,1.669a1.354,1.354,0,0,1-.441.839c-.239.052-.469.089-.712.117-.656.066-1.308.089-1.725.122s-.206-.469-.244-.614-.694-.094-.858-.122-.253-.736-.253-.736-.337.445-.492.469-.3-.211-.736-.37a.938.938,0,0,1-.614-.469,6.248,6.248,0,0,1,.37-2.812c.492-1.875,1.162-1.162,1.35-2.212s-.248-1.406-.984-3.2-1.036-3.281-1.72-3.806c-.469-.38-2,.141-3.065,0-.351-.042-.764.061-.989-.122s-.164-.614-.244-.736c-.937-1.275-.117-2.718-.37-3.318-.3-.7-2.643-1.842-5.906-1.842s-5.835.937-6.941,1.987-2.09,2.765-2.812,3.44-1.664,1.167-1.842,1.969-.4,1.012-1.35,1.842a7.65,7.65,0,0,1-2.212,1.476s.141,2.658.244,4.79-.717,8.488-1.331,14.061c-.352,3.239-.844,5.732-.914,6.229-.187,1.294-.061,1.664-.248,2.344s-.553,8.779-.492,12.781-.408,7.448-.244,7.86c.262.614,6.06,3.979,6.393,4.054s1.936-.136,1.969.366c0,.408-.122.375-.122.375s-11.717.061-11.91,0m38.687-44.33c.108-.286.469-.614.469-.886s-.511-.614-.75-1.462c-.042.511-.38.741-.361,1.35s.436,1.041.651,1m.183-.7a.3.3,0,0,1-.3.3.3.3,0,0,1-.3-.3.3.3,0,0,1,.155-.258c.042,0-.061.356.155.356s.1-.38.141-.356a.29.29,0,0,1,.127.258Z" transform="translate(-211.789 -142.51)" fill="#aa5a22" fill-rule="evenodd"/>
</svg>
